<svg width="144" height="144" viewBox="0 0 144 144" fill="none" xmlns="http://www.w3.org/2000/svg">
<path d="M72.4694 128.524C57.4529 128.376 43.1019 122.307 32.5356 111.636C21.9694 100.965 16.042 86.5553 16.042 71.5381C16.042 56.521 21.9694 42.1108 32.5356 31.4399C43.1019 20.7689 57.4529 14.6998 72.4694 14.5518L82.1207 6.18508L72.4694 0C53.497 0 35.3017 7.53674 21.8862 20.9522C8.47073 34.3677 0.93399 52.563 0.93399 71.5354C0.93399 90.5077 8.47073 108.703 21.8862 122.118C35.3017 135.534 53.497 143.071 72.4694 143.071V128.524Z" fill="white"/>
<path d="M25.187 71.5354C25.187 84.0759 30.1684 96.1029 39.0354 104.971C47.9024 113.839 59.9288 118.822 72.4694 118.823C72.4701 112.614 71.2476 106.465 68.8718 100.727C66.496 94.9902 63.0133 89.7771 58.6227 85.386C54.232 80.9948 49.0194 77.5115 43.2825 75.135C37.5456 72.7585 31.3967 71.5354 25.187 71.5354Z" fill="url(#paint0_linear_1_224)"/>
<path d="M72.4694 118.823C85.0109 118.823 97.0387 113.841 105.907 104.973C114.775 96.1047 119.757 84.0769 119.757 71.5354C107.216 71.5354 95.1878 76.5175 86.3197 85.3856C77.4515 94.2538 72.4694 106.282 72.4694 118.823Z" fill="url(#paint1_linear_1_224)"/>
<path d="M87.1319 56.7953L72.4694 22.5531L57.8123 56.7953C56.3844 59.3531 55.6498 62.2398 55.6815 65.169C55.7132 68.0983 56.51 70.9684 57.993 73.4947C59.476 76.021 61.5936 78.1158 64.1358 79.5714C66.678 81.027 69.5566 81.7927 72.486 81.7927C75.4154 81.7927 78.294 81.027 80.8362 79.5714C83.3784 78.1158 85.496 76.021 86.979 73.4947C88.4619 70.9684 89.2588 68.0983 89.2905 65.169C89.3222 62.2398 88.5876 59.3531 87.1596 56.7953H87.1319Z" fill="url(#paint2_linear_1_224)"/>
<path d="M72.4694 143.071C76.4877 143.071 79.7453 139.813 79.7453 135.795C79.7453 131.776 76.4877 128.519 72.4694 128.519C68.451 128.519 65.1935 131.776 65.1935 135.795C65.1935 139.813 68.451 143.071 72.4694 143.071Z" fill="white"/>
<path d="M129.458 71.5354C129.447 86.6462 123.439 101.135 112.754 111.82C102.069 122.505 87.5802 128.513 72.4694 128.524V143.071C91.4417 143.071 109.637 135.534 123.052 122.118C136.468 108.703 144.005 90.5077 144.005 71.5354C144.005 52.563 136.468 34.3677 123.052 20.9522C109.637 7.53674 91.4417 0 72.4694 0V14.5518C87.5792 14.5635 102.067 20.5707 112.752 31.2545C123.437 41.9383 129.445 56.4255 129.458 71.5354Z" fill="url(#paint3_linear_1_224)"/>
<defs>
<linearGradient id="paint0_linear_1_224" x1="72.9843" y1="118.652" x2="25.8238" y2="72.8255" gradientUnits="userSpaceOnUse">
<stop stop-color="white"/>
<stop offset="1" stop-color="white" stop-opacity="0.5"/>
</linearGradient>
<linearGradient id="paint1_linear_1_224" x1="72.6521" y1="119.155" x2="118.473" y2="72.3327" gradientUnits="userSpaceOnUse">
<stop stop-color="white"/>
<stop offset="1" stop-color="white" stop-opacity="0.5"/>
</linearGradient>
<linearGradient id="paint2_linear_1_224" x1="72.4694" y1="81.1092" x2="72.4694" y2="23.9153" gradientUnits="userSpaceOnUse">
<stop stop-color="white"/>
<stop offset="1" stop-color="white" stop-opacity="0.5"/>
</linearGradient>
<linearGradient id="paint3_linear_1_224" x1="112.548" y1="28.5887" x2="78.4329" y2="131.443" gradientUnits="userSpaceOnUse">
<stop stop-color="white"/>
<stop offset="1" stop-color="white" stop-opacity="0.5"/>
</linearGradient>
</defs>
</svg>
