<svg width="23" height="26" viewBox="0 0 23 26" fill="none" xmlns="http://www.w3.org/2000/svg">
<path d="M18.5164 3.42087C18.4164 3.42087 18.3164 3.39587 18.2289 3.34587C15.8289 2.10837 13.7539 1.58337 11.2664 1.58337C8.79145 1.58337 6.44145 2.17087 4.30395 3.34587C4.00395 3.50837 3.62895 3.39587 3.45395 3.09587C3.29145 2.79587 3.40395 2.40837 3.70395 2.24587C6.02895 0.983374 8.57895 0.333374 11.2664 0.333374C13.9289 0.333374 16.254 0.920874 18.8039 2.23337C19.1164 2.39587 19.2289 2.77087 19.0664 3.07087C18.9539 3.29587 18.7414 3.42087 18.5164 3.42087ZM0.628949 9.98337C0.503949 9.98337 0.378949 9.94587 0.266449 9.87087C-0.0210514 9.67087 -0.0835516 9.28337 0.116448 8.99587C1.35395 7.24587 2.92895 5.87087 4.80395 4.90837C8.72895 2.88337 13.7539 2.87087 17.6914 4.89587C19.5664 5.85837 21.1414 7.22087 22.3789 8.95837C22.5789 9.23337 22.5164 9.63337 22.2289 9.83337C21.9414 10.0334 21.5539 9.97087 21.3539 9.68337C20.2289 8.10837 18.8039 6.87087 17.1164 6.00837C13.5289 4.17087 8.94145 4.17087 5.36645 6.02087C3.66645 6.89587 2.24145 8.14587 1.11645 9.72087C1.01645 9.89587 0.828948 9.98337 0.628949 9.98337ZM8.44145 25.0709C8.27895 25.0709 8.11645 25.0084 8.00395 24.8834C6.91645 23.7959 6.32895 23.0959 5.49145 21.5834C4.62895 20.0459 4.17895 18.1709 4.17895 16.1584C4.17895 12.4459 7.35395 9.42087 11.2539 9.42087C15.1539 9.42087 18.3289 12.4459 18.3289 16.1584C18.3289 16.5084 18.0539 16.7834 17.7039 16.7834C17.3539 16.7834 17.0789 16.5084 17.0789 16.1584C17.0789 13.1334 14.4664 10.6709 11.2539 10.6709C8.04145 10.6709 5.42895 13.1334 5.42895 16.1584C5.42895 17.9584 5.82895 19.6209 6.59145 20.9709C7.39145 22.4084 7.94145 23.0209 8.90395 23.9959C9.14145 24.2459 9.14145 24.6334 8.90395 24.8834C8.76645 25.0084 8.60395 25.0709 8.44145 25.0709ZM17.4039 22.7584C15.9164 22.7584 14.6039 22.3834 13.5289 21.6459C11.6664 20.3834 10.5539 18.3334 10.5539 16.1584C10.5539 15.8084 10.8289 15.5334 11.1789 15.5334C11.5289 15.5334 11.8039 15.8084 11.8039 16.1584C11.8039 17.9209 12.7039 19.5834 14.2289 20.6084C15.1164 21.2084 16.1539 21.4959 17.4039 21.4959C17.7039 21.4959 18.2039 21.4584 18.7039 21.3709C19.0414 21.3084 19.3664 21.5334 19.4289 21.8834C19.4914 22.2209 19.2664 22.5459 18.9164 22.6084C18.2039 22.7459 17.5789 22.7584 17.4039 22.7584ZM14.8914 25.3334C14.8414 25.3334 14.7789 25.3209 14.7289 25.3084C12.7414 24.7584 11.4414 24.0209 10.0789 22.6834C8.32895 20.9459 7.36645 18.6334 7.36645 16.1584C7.36645 14.1334 9.09145 12.4834 11.2164 12.4834C13.3414 12.4834 15.0664 14.1334 15.0664 16.1584C15.0664 17.4959 16.2289 18.5834 17.6664 18.5834C19.1039 18.5834 20.2664 17.4959 20.2664 16.1584C20.2664 11.4459 16.2039 7.62087 11.2039 7.62087C7.65395 7.62087 4.40395 9.59587 2.94145 12.6584C2.45395 13.6709 2.20395 14.8584 2.20395 16.1584C2.20395 17.1334 2.29145 18.6709 3.04145 20.6709C3.16645 20.9959 3.00395 21.3584 2.67895 21.4709C2.35395 21.5959 1.99145 21.4209 1.87895 21.1084C1.26645 19.4709 0.966448 17.8459 0.966448 16.1584C0.966448 14.6584 1.25395 13.2959 1.81645 12.1084C3.47895 8.62087 7.16645 6.35837 11.2039 6.35837C16.8914 6.35837 21.5164 10.7459 21.5164 16.1459C21.5164 18.1709 19.7914 19.8209 17.6664 19.8209C15.5414 19.8209 13.8164 18.1709 13.8164 16.1459C13.8164 14.8084 12.6539 13.7209 11.2164 13.7209C9.77895 13.7209 8.61645 14.8084 8.61645 16.1459C8.61645 18.2834 9.44145 20.2834 10.9539 21.7834C12.1414 22.9584 13.2789 23.6084 15.0414 24.0959C15.3789 24.1834 15.5664 24.5334 15.4789 24.8584C15.4164 25.1459 15.1539 25.3334 14.8914 25.3334Z" fill="white"/>
</svg>
