<svg width="430" height="932" viewBox="0 0 430 932" fill="none" xmlns="http://www.w3.org/2000/svg">
<rect width="430" height="932" fill="url(#paint0_linear_1_170)"/>
<mask id="mask0_1_170" style="mask-type:alpha" maskUnits="userSpaceOnUse" x="0" y="0" width="430" height="932">
<rect width="430" height="932" fill="url(#paint1_linear_1_170)"/>
</mask>
<g mask="url(#mask0_1_170)">
<g opacity="0.6" filter="url(#filter0_f_1_170)">
<circle cx="31" cy="30" r="168" fill="#00D6E2"/>
</g>
<g opacity="0.3" filter="url(#filter1_f_1_170)">
<circle cx="-105.5" cy="575.5" r="222.5" fill="#C359E7"/>
</g>
<g opacity="0.4" filter="url(#filter2_f_1_170)">
<circle cx="575.5" cy="177.5" r="290.5" fill="#C359E7"/>
</g>
<g opacity="0.75" filter="url(#filter3_f_1_170)">
<circle cx="514.5" cy="821.5" r="328.5" fill="#00D6E2" fill-opacity="0.65"/>
</g>
</g>
<path opacity="0.07" d="M238.657 841.622C264.889 867.9 299.327 881 333.765 881C368.05 881 402.335 867.976 428.566 841.852C481.029 789.526 481.183 704.641 428.797 652.239L-2.87146 220H-382L238.657 841.622Z" fill="white"/>
<path opacity="0.07" d="M235.657 1042.62C261.889 1068.9 296.327 1082 330.765 1082C365.05 1082 399.335 1068.98 425.566 1042.85C478.029 990.526 478.183 905.641 425.797 853.239L-5.87146 421H-385L235.657 1042.62Z" fill="white"/>
<path opacity="0.07" d="M129.657 200.622C155.889 226.9 190.327 240 224.765 240C259.05 240 293.335 226.976 319.566 200.852C372.029 148.526 372.183 63.6414 319.797 11.2394L-111.871 -421H-491L129.657 200.622Z" fill="white"/>
<path opacity="0.07" d="M571.657 424.622C597.889 450.9 632.327 464 666.765 464C701.05 464 735.335 450.976 761.566 424.852C814.029 372.526 814.183 287.641 761.797 235.239L330.129 -197H-49L571.657 424.622Z" fill="white"/>
<defs>
<filter id="filter0_f_1_170" x="-337" y="-338" width="736" height="736" filterUnits="userSpaceOnUse" color-interpolation-filters="sRGB">
<feFlood flood-opacity="0" result="BackgroundImageFix"/>
<feBlend mode="normal" in="SourceGraphic" in2="BackgroundImageFix" result="shape"/>
<feGaussianBlur stdDeviation="100" result="effect1_foregroundBlur_1_170"/>
</filter>
<filter id="filter1_f_1_170" x="-528" y="153" width="845" height="845" filterUnits="userSpaceOnUse" color-interpolation-filters="sRGB">
<feFlood flood-opacity="0" result="BackgroundImageFix"/>
<feBlend mode="normal" in="SourceGraphic" in2="BackgroundImageFix" result="shape"/>
<feGaussianBlur stdDeviation="100" result="effect1_foregroundBlur_1_170"/>
</filter>
<filter id="filter2_f_1_170" x="85" y="-313" width="981" height="981" filterUnits="userSpaceOnUse" color-interpolation-filters="sRGB">
<feFlood flood-opacity="0" result="BackgroundImageFix"/>
<feBlend mode="normal" in="SourceGraphic" in2="BackgroundImageFix" result="shape"/>
<feGaussianBlur stdDeviation="100" result="effect1_foregroundBlur_1_170"/>
</filter>
<filter id="filter3_f_1_170" x="-14" y="293" width="1057" height="1057" filterUnits="userSpaceOnUse" color-interpolation-filters="sRGB">
<feFlood flood-opacity="0" result="BackgroundImageFix"/>
<feBlend mode="normal" in="SourceGraphic" in2="BackgroundImageFix" result="shape"/>
<feGaussianBlur stdDeviation="100" result="effect1_foregroundBlur_1_170"/>
</filter>
<linearGradient id="paint0_linear_1_170" x1="215" y1="0" x2="215" y2="932" gradientUnits="userSpaceOnUse">
<stop stop-color="#5572FD"/>
<stop offset="1" stop-color="#3759F2"/>
</linearGradient>
<linearGradient id="paint1_linear_1_170" x1="215" y1="0" x2="215" y2="932" gradientUnits="userSpaceOnUse">
<stop stop-color="#5572FD"/>
<stop offset="1" stop-color="#3759F2"/>
</linearGradient>
</defs>
</svg>
